<?xml version="1.0" standalone="no"?>
<!DOCTYPE svg PUBLIC "-//W3C//DTD SVG 20010904//EN"
 "http://www.w3.org/TR/2001/REC-SVG-20010904/DTD/svg10.dtd">
<svg version="1.0" xmlns="http://www.w3.org/2000/svg"
 width="277.000000pt" height="277.000000pt" viewBox="0 0 277.000000 277.000000"
 preserveAspectRatio="xMidYMid meet">
<metadata>
Created by potrace 1.14, written by Peter Selinger 2001-2017
</metadata>
<g transform="translate(0.000000,277.000000) scale(0.100000,-0.100000)"
fill="#000000" stroke="none">
<path d="M1230 2647 c-319 -112 -538 -234 -775 -431 -101 -84 -182 -165 -312
-314 l-126 -143 6 -187 c6 -198 26 -326 82 -517 62 -213 179 -456 313 -650
128 -184 116 -172 205 -201 106 -33 254 -68 387 -91 84 -14 158 -18 370 -18
283 1 359 9 620 71 232 55 227 52 303 154 184 245 311 506 382 788 36 141 64
386 65 552 0 87 -2 99 -27 135 -85 127 -322 371 -466 479 -185 138 -415 260
-672 357 -186 69 -201 70 -355 16z m-150 -1531 c0 -2 -8 -10 -17 -17 -16 -13
-17 -12 -4 4 13 16 21 21 21 13z m610 -11 c0 -7 -283 -95 -288 -90 -10 10 10
18 135 55 131 38 153 44 153 35z m-471 -39 c69 -18 126 -37 128 -43 2 -6 -59
5 -136 24 -78 20 -138 39 -135 44 7 12 3 13 143 -25z m496 5 c-6 -5 -64 -26
-130 -46 -181 -56 -175 -55 -175 -41 0 7 57 30 133 53 128 40 192 53 172 34z
m-501 -42 c84 -20 136 -37 136 -45 0 -9 -8 -10 -32 -3 -18 5 -86 23 -150 40
-65 18 -118 36 -118 41 0 6 6 8 14 5 8 -3 76 -20 150 -38z m530 13 c4 -7 -298
-112 -324 -112 -5 0 -10 6 -10 14 0 8 26 20 66 31 36 10 105 30 153 46 94 31
107 33 115 21z m-544 -47 c119 -32 179 -55 142 -55 -22 0 -297 83 -307 92 -7
7 -3 8 10 5 11 -3 81 -22 155 -42z m565 16 c8 -14 4 -15 -175 -71 -142 -45
-187 -54 -168 -35 5 5 316 113 330 114 4 1 9 -3 13 -8z m-592 -42 c139 -40
188 -58 159 -59 -15 0 -314 89 -321 96 -11 10 32 1 162 -37z"/>
</g>
</svg>
